<?xml version="1.0"?>
<svg width="350" height="100" xmlns="http://www.w3.org/2000/svg">

 <g>
  <title>Layer 1</title>
  <g id="svg_1">
   <path id="svg_2" d="m330.136993,79.776001c-0.718994,-1.773003 -5.173981,-2.148003 -7.902008,-0.389c-8.940979,5.765999 -11.678009,4.688995 -15.549011,1.167c-5.765991,-5.248001 -3.847961,-9.736 -3.367981,-14.122002c0.905029,-8.293999 -2.138,-25.784 -16.842987,-36.796c-5.933014,-4.442999 -11.402985,-4.794001 -17.610992,-11.076c0.441986,-1.880999 0.994995,-4.688999 -0.269989,-5.638c-1.814026,-1.361 -4.989044,-0.584 -5.705017,0.197001c-3.627014,-1.813001 -5.373016,-1.743 -5.588989,-2.363001c-0.805023,-2.323 -2.867035,-5.273 -3.406036,-5.273c-0.627991,0 -2.093994,1.257 -2.401978,2.905001c-0.30899,1.650999 0.294983,3.242 -0.037994,3.552999c-1.336029,1.254 -3.332001,2.666 -4.368011,4.479c-1.036987,1.813999 -0.134003,4.142 -1.296021,5.701c-1.13797,1.527 -3.142975,2.35 -3.756958,3.110001c-0.414001,0.511999 -0.207031,1.889 0.431976,2.390999c0.837006,0.658001 1.274994,-0.16 3.112,1.136c1.835999,1.296001 3.77301,0.992001 5.138,1.137001c0.706024,0.073999 0.667023,2.221001 0,3.368c-1.303986,2.238998 -3.761993,1.295998 -5.556976,1c-1.617004,-0.267002 -5.085999,-2.094002 -7.838013,-1.615002c-2.278,0.396 -4.162003,3.156002 -2.932007,3.830002c2.513,1.375999 3.578003,-0.597 4.309021,-0.478001c2.212982,0.358002 5.371979,2.055 3.948975,1.973999c-4.187988,-0.238998 -7.260986,3.832001 -5.026001,4.249001c3.529999,0.659 3.291016,-1.257 5.863007,-0.658001c5.652985,1.315002 10.180023,4.224003 11.787994,4.728001c9.154022,2.869999 8.917023,2.313 12.026001,6.459999c3.109009,4.146 2.539001,4.983002 1.795013,7.479c-0.838013,2.812 -3.609009,9.456005 -2.573029,13.342999c1.036011,3.888 2.166992,6.787003 2.139038,8.083c-0.027039,1.295006 0.498962,3.195999 -1.943024,3.691002c-8.939026,1.814003 -8.569,3.398003 -8.436005,4.641998c0.07901,0.735001 4.480011,0.695 5.196014,0.606003c1.164001,-0.147003 4.902985,-1.712997 9.199982,-3.821999c3.585999,-1.763 2.785004,-1.037003 3.951019,-3.563004c1.132996,-2.457001 2.654999,-6.738998 3.757019,-7.903999c1.942993,10.041 6.65799,9.563004 6.931976,12.568001c0.194,2.137001 -7.968994,2.719002 -8.615997,4.792999c-0.710999,2.278999 -0.257996,2.331001 3.888,2.331001c3.109985,0 10.300995,-4.081001 10.363983,-5.247002c0.20401,-3.658997 2.591003,-10.139 3.757996,-11.208c0.373016,2.543999 3.415009,7.709 4.341003,8.805c2.955017,3.505005 5.635986,5.252998 11.337036,5.252998s9.314972,-1.519997 11.919983,-3.237999c3.044006,-2.009995 6.929993,-6.867996 5.829987,-9.588997zm-76.989014,-73.130001c0.831024,-0.57 1.379028,-0.891 3.051025,3.754c-1.502991,-0.120999 -3.199005,0.266001 -4.105011,0.765c-0.39798,-3.257 0.503021,-4.141 1.053986,-4.519zm-5.996979,11.228001c0.395996,-1.438 0.192993,-1.209 0.572998,-1.436001c0.595001,-0.355999 1.738007,0.145 3.229004,0.342001c0.40799,0.053999 -2.085999,2.387999 -2.449005,2.387999c-0.248993,0 -0.263,-0.783998 -0.696014,-1.172998c-0.432983,-0.390001 -0.714996,0.087999 -0.656982,-0.121zm3.556,11.456999c-2.950012,-0.147999 -3.562988,0.015001 -6.147003,-1.827c-1.117981,-0.58 1.217987,-1.618999 -0.548981,-2.92c0.571991,-0.433001 1.453979,-1.149 1.998993,-1.774c0.109985,0.07 -1.156006,1.539001 -1,1.774c0.199982,0.300001 3.550964,-1.315001 3.497986,-1.049999c-0.549988,2.778999 1.419006,4.256001 2.144989,4.646999c1.464996,0.788 3.452026,0.802 5.951019,0.802c-0.25,0.462 -5.559998,0.365 -5.897003,0.348zm0.441986,-6.651999l0.111023,-0.073c1.182007,-0.775002 2.148987,-0.555 2.799011,0.618999l0.050964,0.091999l-0.048981,0.093c-0.283997,0.535 -0.803009,0.867001 -1.354004,0.867001c-0.587006,0 -1.296997,-0.386 -1.528992,-1.468l-0.029022,-0.129999zm9.663025,5.952999c-1.924011,-1.681999 -3.071014,-2.962 -3.708008,-4.548c-0.699005,-1.740999 -2.851013,-3.056 -4.487,-3.24c-0.998993,-0.112999 -2.873993,0.240999 -2.291992,-0.407c0.583008,-0.648001 2.409973,-3.882 2.656982,-2.527c0.130005,0.712 -0.436005,1.623001 -0.125977,1.875c0.359985,0.294001 3.429993,0.716 4.529999,1.169001c0.395966,0.163 2.807983,2.194 3.677979,2.778999c1.824005,2.718 1.476013,6.408001 -0.251984,4.899zm7.393982,-10.462999c-0.862,2.299999 -2.255981,3.314999 -2.805969,2.667c-0.521027,-0.616001 0.151978,-0.98 0.353973,-1.238001c1.937012,-2.480999 2.112,-4.922999 1.609985,-5.381c-1.418976,-1.295 -5.635986,1.621 -6.153992,1.427c-0.518982,-0.195 0.485016,-0.868 1.04599,-1.268c1.617035,-1.154 4.130035,-2.182 5.891998,-0.767c0.632996,0.507999 0.671021,2.922999 0.058014,4.56zm29.439026,60.233c0.519958,-0.647003 3.280975,-3.527 4.116974,-5.557999c0,2.072998 1.011993,3.687996 1.399017,4.210999c-1.917023,1.100998 -3.530029,3.610001 -4.185028,4.664001c-0.582001,-1.101006 -1.330963,-1.849998 -1.330963,-3.317001zm5.515991,10.055c-0.971008,-0.714005 -1.981995,-2.817001 -2.501007,-3.660004c0.513,-2.727997 2.504974,-4.578995 4.412018,-4.927994c1.057983,0.748993 1.554962,1.895996 1.748962,2.307999c-1.819977,1.226997 -3.465973,5.152 -3.659973,6.279999zm8.720978,3.425003c-1.22699,-0.122002 -3.908997,-0.149002 -4.845001,-0.883003c-0.843994,-1.764999 1.475006,-7.045998 3.121033,-7.099998c1.225006,0.561996 1.589996,0.317001 1.898987,0.860001c1.136993,1.420998 1.362,5.651001 -0.175018,7.123001zm7.08902,-0.785004c-1.554993,0.453003 -1.229004,0.518997 -2.462006,0.453003c0.712982,-1.101006 -0.128998,-6.153 -0.776001,-7.644005c0.399994,-0.519997 1.295013,-0.583 1.941986,-0.777c1.841003,1.458 3.369019,5.636002 1.296021,7.968002zm6.371979,-3.546997c-0.453979,0.518997 -1.358978,1.036995 -2.072998,1.425995c-0.19397,-3.045998 -0.971985,-5.116997 -3.303986,-7.386002c0.646973,-0.387993 0.985992,-0.621994 1.554993,-0.972c2.656006,1.425003 3.949005,3.992004 3.821991,6.932007z" fill="#000000"/>
   <path id="svg_3" d="m252.705994,23.889999c0.382019,0 0.734009,-0.212 0.958008,-0.569c-0.518005,-0.868 -1.177979,-1.004 -2.075989,-0.462c0.207977,0.756001 0.705994,1.031 1.117981,1.031z" fill="#000000"/>
  </g>
  <text style="cursor: move;" font-style="normal" font-weight="normal" stroke="#000" transform="matrix(2.062751293182373,0,0,2.062751293182373,-115.30851531028748,-13.300996653735638) " stroke-dasharray="2,2" xml:space="preserve" text-anchor="left" font-family="'Palatino Linotype', 'Book Antiqua', Palatino, serif" font-size="24" id="svg_4" y="37.423947" x="69.232057" stroke-width="0" fill="#000000">./pyccoon</text>
 </g>
</svg>
