<?xml version="1.0"?>
<svg width="100" height="100" xmlns="http://www.w3.org/2000/svg">

 <g>
  <title>Layer 1</title>
  <g transform="translate(10,0) scale(-1,1) " id="svg_1">
   <path fill="#000000" d="m8.796265,78.77594c-0.718994,-1.773003 -5.173982,-2.148003 -7.902009,-0.389c-8.94098,5.765999 -11.67801,4.688995 -15.549012,1.167c-5.765993,-5.248001 -3.847963,-9.736 -3.367979,-14.122002c0.905025,-8.293999 -2.138004,-25.784 -16.842987,-36.796009c-5.933014,-4.442999 -11.402985,-4.794001 -17.610992,-11.076c0.441986,-1.880997 0.994995,-4.688997 -0.269989,-5.637999c-1.814026,-1.361 -4.989044,-0.583998 -5.705017,0.197001c-3.627014,-1.813001 -5.373016,-1.743 -5.588989,-2.363002c-0.805023,-2.322999 -2.867035,-5.273 -3.406036,-5.273c-0.627991,0 -2.093994,1.257001 -2.401978,2.905002c-0.30899,1.650999 0.294983,3.242 -0.037994,3.552999c-1.336029,1.253999 -3.332001,2.665999 -4.368011,4.478999c-1.036987,1.814003 -0.134003,4.142 -1.296021,5.701c-1.13797,1.527 -3.142975,2.35 -3.756958,3.109999c-0.414001,0.512001 -0.207031,1.889 0.431976,2.391001c0.837006,0.657999 1.274994,-0.160002 3.112,1.136c1.835999,1.296001 3.77301,0.992001 5.138,1.137001c0.706024,0.073999 0.667023,2.220999 0,3.367998c-1.303986,2.238998 -3.761993,1.295998 -5.556976,1c-1.617004,-0.267002 -5.085999,-2.094 -7.838013,-1.615c-2.278,0.395998 -4.162003,3.156 -2.932007,3.830004c2.513,1.375999 3.578003,-0.597004 4.309021,-0.478004c2.212982,0.358006 5.371979,2.055008 3.948975,1.974003c-4.187988,-0.238998 -7.260986,3.832008 -5.026001,4.249008c3.529999,0.659 3.291016,-1.257 5.863007,-0.658001c5.652985,1.315002 10.180023,4.224003 11.787994,4.728001c9.154022,2.869999 8.917023,2.313 12.026001,6.459999c3.109009,4.146 2.539001,4.983002 1.795013,7.479c-0.838013,2.812 -3.609009,9.456005 -2.573029,13.342999c1.036011,3.888 2.166992,6.787003 2.139038,8.083c-0.027039,1.295006 0.498962,3.195999 -1.943024,3.691002c-8.939026,1.814003 -8.569,3.398003 -8.436005,4.641998c0.07901,0.735001 4.480011,0.695 5.196014,0.606003c1.164001,-0.147003 4.902985,-1.712997 9.199982,-3.821999c3.585999,-1.763 2.785004,-1.037003 3.951019,-3.563004c1.132996,-2.457001 2.654999,-6.738998 3.757019,-7.903999c1.942993,10.041 6.65799,9.563004 6.931976,12.568001c0.194,2.137001 -7.968994,2.719002 -8.615997,4.792999c-0.710999,2.278999 -0.257996,2.331001 3.888,2.331001c3.109985,0 10.300991,-4.081001 10.363979,-5.247002c0.20401,-3.658997 2.591005,-10.139 3.757996,-11.208c0.373016,2.543999 3.415009,7.709 4.341005,8.805c2.955015,3.505005 5.635986,5.252991 11.337036,5.252991s9.314973,-1.519989 11.919984,-3.237991c3.044007,-2.009995 6.929995,-6.867996 5.829988,-9.588997zm-76.989014,-73.130011c0.831024,-0.57 1.379028,-0.891 3.051025,3.754001c-1.502991,-0.121 -3.199005,0.266 -4.105011,0.765c-0.39798,-3.257 0.503021,-4.141001 1.053986,-4.519001zm-5.996979,11.228003c0.395996,-1.438003 0.192993,-1.209 0.572998,-1.436004c0.595001,-0.355994 1.738007,0.145001 3.229004,0.342002c0.40799,0.054003 -2.085999,2.387999 -2.449005,2.387999c-0.248993,0 -0.263,-0.783987 -0.696014,-1.172991c-0.432983,-0.390007 -0.714996,0.087996 -0.656982,-0.120996l0,-0.00001zm3.556,11.456997c-2.950012,-0.148001 -3.562988,0.015001 -6.147003,-1.827c-1.117981,-0.58 1.217987,-1.618999 -0.548981,-2.92c0.571991,-0.433001 1.453979,-1.149 1.998993,-1.774c0.109985,0.07 -1.156006,1.539001 -1,1.774c0.199982,0.300001 3.550964,-1.315001 3.497986,-1.049999c-0.549988,2.778999 1.419006,4.256008 2.144989,4.646999c1.464996,0.788 3.452026,0.801998 5.951019,0.801998c-0.25,0.462002 -5.559998,0.365002 -5.897003,0.348001zm0.441986,-6.651997l0.111023,-0.073c1.182007,-0.775003 2.148987,-0.555002 2.799011,0.618998l0.050964,0.091999l-0.048981,0.093c-0.283997,0.535 -0.803009,0.867001 -1.354004,0.867001c-0.587006,0 -1.296997,-0.386 -1.528992,-1.468l-0.029022,-0.129997zm9.663025,5.952997c-1.924011,-1.681999 -3.071014,-2.962 -3.708008,-4.548c-0.699005,-1.740997 -2.851013,-3.055998 -4.487,-3.239998c-0.998993,-0.112999 -2.873993,0.240999 -2.291992,-0.407c0.583008,-0.648005 2.409973,-3.882 2.656982,-2.527c0.130005,0.711998 -0.436005,1.622997 -0.125977,1.874998c0.359985,0.294004 3.429993,0.716 4.529999,1.169004c0.395966,0.162996 2.807983,2.193996 3.677979,2.778996c1.824005,2.718 1.476013,6.407999 -0.251984,4.899zm7.393982,-10.462999c-0.862,2.299999 -2.255981,3.314999 -2.805969,2.667002c-0.521027,-0.615999 0.151978,-0.98 0.353973,-1.237999c1.937012,-2.481005 2.112,-4.923002 1.609985,-5.381001c-1.418976,-1.295002 -5.635986,1.621 -6.153992,1.426998c-0.518982,-0.195 0.485016,-0.868002 1.04599,-1.267998c1.617035,-1.154003 4.130035,-2.182001 5.891998,-0.767002c0.632996,0.507998 0.671021,2.922997 0.058014,4.559999zm29.439024,60.233017c0.519957,-0.647011 3.280973,-3.527 4.116972,-5.557999c0,2.07299 1.011995,3.687988 1.399019,4.210999c-1.917023,1.10099 -3.530031,3.610001 -4.18503,4.664001c-0.582001,-1.101013 -1.330961,-1.849998 -1.330961,-3.317001zm5.515991,10.055c-0.97101,-0.714012 -1.981997,-2.817009 -2.501007,-3.660011c0.512999,-2.727989 2.504976,-4.578987 4.412016,-4.927986c1.057984,0.748985 1.554962,1.895988 1.748962,2.307999c-1.819977,1.22699 -3.465973,5.152 -3.659971,6.279999zm8.720977,3.425003c-1.226989,-0.122002 -3.908996,-0.149002 -4.845002,-0.883003c-0.843994,-1.764999 1.475008,-7.045998 3.121035,-7.099998c1.225006,0.561989 1.589997,0.317001 1.898989,0.860001c1.136992,1.420998 1.361998,5.651001 -0.175021,7.123001zm7.089021,-0.785004c-1.554994,0.453003 -1.229005,0.51899 -2.462006,0.453003c0.712982,-1.101013 -0.128995,-6.153 -0.776001,-7.644012c0.399997,-0.519989 1.295015,-0.583 1.941986,-0.777c1.841004,1.458 3.36902,5.636009 1.296021,7.96801zm6.371978,-3.546997c-0.453979,0.51899 -1.358978,1.036987 -2.072995,1.425987c-0.193971,-3.045998 -0.971987,-5.116989 -3.303988,-7.386002c0.646975,-0.387985 0.985993,-0.621986 1.554993,-0.972c2.656006,1.425003 3.949009,3.992004 3.82199,6.932014z" id="svg_2"/>
   <path fill="#000000" d="m-68.634735,22.889929c0.382019,0 0.734009,-0.212 0.958008,-0.569c-0.518005,-0.868 -1.177979,-1.003998 -2.075989,-0.461998c0.207977,0.755999 0.705994,1.030998 1.117981,1.030998z" id="svg_3"/>
  </g>
  <text transform="matrix(2.062751293182373,0,0,2.062751293182373,-115.30851531028748,-13.300996653735638) " fill="#000000" stroke-width="0" x="96.545451" y="41.302228" id="svg_4" font-size="24" font-family="'Palatino Linotype', 'Book Antiqua', Palatino, serif" text-anchor="left" xml:space="preserve" stroke-dasharray="2,2" stroke="#000" font-weight="normal" font-style="normal">/</text>
 </g>
</svg>
